<svg width="21" height="23" viewBox="0 0 21 23" fill="none" xmlns="http://www.w3.org/2000/svg">
<path d="M17.9604 6.48729H3.0403C2.87889 6.47358 2.71894 6.52691 2.59799 6.63471C2.47908 6.74894 2.42399 6.91431 2.45057 7.07702L3.98385 20.4343C4.16366 21.907 5.41943 23.0106 6.90298 22.9997H14.3335C15.8589 23.0214 17.1437 21.865 17.2822 20.3459L18.5501 7.01804C18.5579 6.87508 18.5043 6.73557 18.4027 6.63471C18.2818 6.52691 18.1218 6.47358 17.9604 6.48729ZM16.1028 20.2869C16.0101 21.1848 15.2355 21.8561 14.3336 21.8202H6.90303C6.01728 21.8561 5.25592 21.198 5.16331 20.3164L3.68901 7.66675H17.3117L16.1028 20.2869Z" fill="#F87B7B"/>
<path d="M20.1127 2.6541H14.0385V1.7105C14.0712 0.799123 13.359 0.0338132 12.4476 0.00107868C12.4177 6.33881e-06 12.3877 -0.000275855 12.3578 0.000288533H8.6425C7.73067 -0.0165867 6.97789 0.708878 6.96102 1.6207C6.96045 1.65062 6.96074 1.68058 6.96181 1.7105V2.65404H0.887581C0.561872 2.65404 0.297852 2.91806 0.297852 3.24377C0.297852 3.56948 0.561872 3.8335 0.887581 3.8335H20.1127C20.4384 3.8335 20.7025 3.56948 20.7025 3.24377C20.7025 2.91806 20.4384 2.6541 20.1127 2.6541ZM12.859 1.7105V2.65404H8.14121V1.7105C8.10797 1.45206 8.29055 1.21564 8.54898 1.1824C8.57996 1.17839 8.61129 1.17755 8.64244 1.17975H12.3578C12.6177 1.16135 12.8433 1.35708 12.8617 1.61703C12.864 1.64819 12.863 1.67951 12.859 1.7105Z" fill="#F87B7B"/>
</svg>
